<mxfile host="Electron" modified="2024-03-18T11:12:41.444Z" agent="Mozilla/5.0 (Windows NT 10.0; Win64; x64) AppleWebKit/537.36 (KHTML, like Gecko) draw.io/24.0.4 Chrome/120.0.6099.109 Electron/28.1.0 Safari/537.36" etag="1MXG1YnVFy4AG_MRrU8M" version="24.0.4" type="device">
  <diagram name="Страница — 1" id="K4H-Stnm3o599I1eEMln">
    <mxGraphModel dx="1925" dy="828" grid="1" gridSize="10" guides="1" tooltips="1" connect="1" arrows="1" fold="1" page="1" pageScale="1" pageWidth="827" pageHeight="1169" math="0" shadow="0">
      <root>
        <mxCell id="0" />
        <mxCell id="1" parent="0" />
        <mxCell id="-idh0jtSktuKDeobnc2z-2" value="&lt;font style=&quot;font-size: 19px;&quot;&gt;Конференция&lt;/font&gt;" style="rhombus;whiteSpace=wrap;html=1;strokeWidth=2;fillColor=#d5e8d4;strokeColor=#82b366;" vertex="1" parent="1">
          <mxGeometry x="300" y="150" width="190" height="190" as="geometry" />
        </mxCell>
        <mxCell id="-idh0jtSktuKDeobnc2z-3" value="&lt;font style=&quot;font-size: 16px;&quot;&gt;Основатель&lt;/font&gt;" style="shape=umlActor;verticalLabelPosition=bottom;verticalAlign=top;html=1;outlineConnect=0;strokeWidth=2;fillColor=#f8cecc;strokeColor=#b85450;" vertex="1" parent="1">
          <mxGeometry x="70" y="80" width="30" height="60" as="geometry" />
        </mxCell>
        <mxCell id="-idh0jtSktuKDeobnc2z-4" value="&lt;span style=&quot;font-size: 16px;&quot;&gt;Любой ведущий&lt;/span&gt;" style="shape=umlActor;verticalLabelPosition=bottom;verticalAlign=top;html=1;outlineConnect=0;strokeWidth=2;fillColor=#f8cecc;strokeColor=#b85450;" vertex="1" parent="1">
          <mxGeometry x="65" y="260" width="30" height="60" as="geometry" />
        </mxCell>
        <mxCell id="-idh0jtSktuKDeobnc2z-6" value="&lt;font style=&quot;font-size: 16px;&quot;&gt;Модераторы&lt;/font&gt;" style="shape=umlActor;verticalLabelPosition=bottom;verticalAlign=top;html=1;outlineConnect=0;strokeWidth=2;fillColor=#fff2cc;strokeColor=#d6b656;" vertex="1" parent="1">
          <mxGeometry x="70" y="390" width="30" height="60" as="geometry" />
        </mxCell>
        <mxCell id="-idh0jtSktuKDeobnc2z-9" value="&lt;font style=&quot;font-size: 16px;&quot;&gt;Участник 1&lt;/font&gt;" style="shape=umlActor;verticalLabelPosition=bottom;verticalAlign=top;html=1;outlineConnect=0;strokeWidth=2;fillColor=#d5e8d4;strokeColor=#82b366;" vertex="1" parent="1">
          <mxGeometry x="650" y="80" width="30" height="60" as="geometry" />
        </mxCell>
        <mxCell id="-idh0jtSktuKDeobnc2z-10" value="&lt;font style=&quot;font-size: 16px;&quot;&gt;Участник 2&lt;/font&gt;" style="shape=umlActor;verticalLabelPosition=bottom;verticalAlign=top;html=1;outlineConnect=0;strokeWidth=2;fillColor=#d5e8d4;strokeColor=#82b366;" vertex="1" parent="1">
          <mxGeometry x="650" y="180" width="30" height="60" as="geometry" />
        </mxCell>
        <mxCell id="-idh0jtSktuKDeobnc2z-11" value="&lt;span style=&quot;font-size: 16px;&quot;&gt;Участник 3&lt;/span&gt;" style="shape=umlActor;verticalLabelPosition=bottom;verticalAlign=top;html=1;outlineConnect=0;strokeWidth=2;fillColor=#d5e8d4;strokeColor=#82b366;" vertex="1" parent="1">
          <mxGeometry x="650" y="280" width="30" height="60" as="geometry" />
        </mxCell>
        <mxCell id="-idh0jtSktuKDeobnc2z-12" value="&lt;font style=&quot;font-size: 16px;&quot;&gt;Участник N&lt;/font&gt;" style="shape=umlActor;verticalLabelPosition=bottom;verticalAlign=top;html=1;outlineConnect=0;strokeWidth=2;fillColor=#d5e8d4;strokeColor=#82b366;" vertex="1" parent="1">
          <mxGeometry x="650" y="470" width="30" height="60" as="geometry" />
        </mxCell>
        <mxCell id="-idh0jtSktuKDeobnc2z-13" value="" style="curved=1;endArrow=classic;html=1;rounded=0;strokeWidth=2;fillColor=#f8cecc;strokeColor=#b85450;" edge="1" parent="1" source="-idh0jtSktuKDeobnc2z-3" target="-idh0jtSktuKDeobnc2z-2">
          <mxGeometry width="50" height="50" relative="1" as="geometry">
            <mxPoint x="330" y="250" as="sourcePoint" />
            <mxPoint x="380" y="200" as="targetPoint" />
            <Array as="points">
              <mxPoint x="180" y="170" />
              <mxPoint x="310" y="180" />
            </Array>
          </mxGeometry>
        </mxCell>
        <mxCell id="-idh0jtSktuKDeobnc2z-15" value="" style="curved=1;endArrow=classic;html=1;rounded=0;strokeWidth=2;fillColor=#f8cecc;strokeColor=#b85450;" edge="1" parent="1" source="-idh0jtSktuKDeobnc2z-4" target="-idh0jtSktuKDeobnc2z-2">
          <mxGeometry width="50" height="50" relative="1" as="geometry">
            <mxPoint x="110" y="120" as="sourcePoint" />
            <mxPoint x="313" y="252" as="targetPoint" />
            <Array as="points">
              <mxPoint x="190" y="220" />
            </Array>
          </mxGeometry>
        </mxCell>
        <mxCell id="-idh0jtSktuKDeobnc2z-18" value="&lt;span style=&quot;font-size: 14px; background-color: rgb(255, 255, 255);&quot;&gt;При отключении всех ведущих,&lt;br&gt;конференция завершается&lt;/span&gt;" style="text;html=1;align=center;verticalAlign=middle;resizable=0;points=[];autosize=1;strokeColor=none;fillColor=none;" vertex="1" parent="1">
          <mxGeometry x="-20" y="180" width="230" height="50" as="geometry" />
        </mxCell>
        <mxCell id="-idh0jtSktuKDeobnc2z-21" value="" style="curved=1;endArrow=classic;html=1;rounded=0;strokeWidth=2;fillColor=#ffe6cc;strokeColor=#d79b00;" edge="1" parent="1" source="-idh0jtSktuKDeobnc2z-6" target="-idh0jtSktuKDeobnc2z-2">
          <mxGeometry width="50" height="50" relative="1" as="geometry">
            <mxPoint x="200" y="390" as="sourcePoint" />
            <mxPoint x="250" y="340" as="targetPoint" />
            <Array as="points">
              <mxPoint x="190" y="350" />
              <mxPoint x="300" y="320" />
            </Array>
          </mxGeometry>
        </mxCell>
        <mxCell id="-idh0jtSktuKDeobnc2z-24" value="" style="shape=umlActor;verticalLabelPosition=bottom;verticalAlign=top;html=1;outlineConnect=0;strokeWidth=2;fillColor=#f8cecc;strokeColor=#b85450;" vertex="1" parent="1">
          <mxGeometry x="80" y="270" width="30" height="60" as="geometry" />
        </mxCell>
        <mxCell id="-idh0jtSktuKDeobnc2z-27" value="" style="curved=1;endArrow=classic;html=1;rounded=0;entryX=0.5;entryY=0.5;entryDx=0;entryDy=0;entryPerimeter=0;startArrow=classic;startFill=1;strokeWidth=2;fillColor=#d5e8d4;strokeColor=#82b366;" edge="1" parent="1" source="-idh0jtSktuKDeobnc2z-2" target="-idh0jtSktuKDeobnc2z-9">
          <mxGeometry width="50" height="50" relative="1" as="geometry">
            <mxPoint x="750" y="240" as="sourcePoint" />
            <mxPoint x="800" y="190" as="targetPoint" />
            <Array as="points">
              <mxPoint x="590" y="130" />
            </Array>
          </mxGeometry>
        </mxCell>
        <mxCell id="-idh0jtSktuKDeobnc2z-28" value="" style="curved=1;endArrow=classic;html=1;rounded=0;startArrow=classic;startFill=1;strokeWidth=2;fillColor=#d5e8d4;strokeColor=#82b366;" edge="1" parent="1" source="-idh0jtSktuKDeobnc2z-2" target="-idh0jtSktuKDeobnc2z-10">
          <mxGeometry width="50" height="50" relative="1" as="geometry">
            <mxPoint x="460" y="475" as="sourcePoint" />
            <mxPoint x="620" y="380" as="targetPoint" />
            <Array as="points">
              <mxPoint x="600" y="230" />
            </Array>
          </mxGeometry>
        </mxCell>
        <mxCell id="-idh0jtSktuKDeobnc2z-29" value="" style="curved=1;endArrow=classic;html=1;rounded=0;startArrow=classic;startFill=1;strokeWidth=2;fillColor=#d5e8d4;strokeColor=#82b366;" edge="1" parent="1" source="-idh0jtSktuKDeobnc2z-2" target="-idh0jtSktuKDeobnc2z-11">
          <mxGeometry width="50" height="50" relative="1" as="geometry">
            <mxPoint x="548" y="248" as="sourcePoint" />
            <mxPoint x="660" y="225" as="targetPoint" />
            <Array as="points">
              <mxPoint x="610" y="280" />
            </Array>
          </mxGeometry>
        </mxCell>
        <mxCell id="-idh0jtSktuKDeobnc2z-30" value="" style="curved=1;endArrow=classic;html=1;rounded=0;startArrow=classic;startFill=1;strokeWidth=2;fillColor=#d5e8d4;strokeColor=#82b366;" edge="1" parent="1" source="-idh0jtSktuKDeobnc2z-2" target="-idh0jtSktuKDeobnc2z-12">
          <mxGeometry width="50" height="50" relative="1" as="geometry">
            <mxPoint x="558" y="258" as="sourcePoint" />
            <mxPoint x="670" y="235" as="targetPoint" />
            <Array as="points">
              <mxPoint x="520" y="400" />
            </Array>
          </mxGeometry>
        </mxCell>
        <mxCell id="-idh0jtSktuKDeobnc2z-33" value="" style="shape=umlActor;verticalLabelPosition=bottom;verticalAlign=top;html=1;outlineConnect=0;strokeWidth=2;fillColor=#fff2cc;strokeColor=#d6b656;" vertex="1" parent="1">
          <mxGeometry x="80" y="400" width="30" height="60" as="geometry" />
        </mxCell>
        <mxCell id="-idh0jtSktuKDeobnc2z-36" value="&lt;font style=&quot;font-size: 16px;&quot;&gt;...&lt;/font&gt;" style="shape=umlActor;verticalLabelPosition=bottom;verticalAlign=top;html=1;outlineConnect=0;strokeWidth=2;fillColor=#d5e8d4;strokeColor=#82b366;dashed=1;" vertex="1" parent="1">
          <mxGeometry x="650" y="380" width="30" height="60" as="geometry" />
        </mxCell>
        <mxCell id="-idh0jtSktuKDeobnc2z-37" value="" style="curved=1;endArrow=classic;html=1;rounded=0;startArrow=classic;startFill=1;strokeWidth=2;fillColor=#d5e8d4;strokeColor=#82b366;dashed=1;" edge="1" parent="1" target="-idh0jtSktuKDeobnc2z-36" source="-idh0jtSktuKDeobnc2z-2">
          <mxGeometry width="50" height="50" relative="1" as="geometry">
            <mxPoint x="477" y="350" as="sourcePoint" />
            <mxPoint x="660" y="317" as="targetPoint" />
            <Array as="points">
              <mxPoint x="550" y="360" />
            </Array>
          </mxGeometry>
        </mxCell>
      </root>
    </mxGraphModel>
  </diagram>
</mxfile>
